<svg xmlns="http://www.w3.org/2000/svg" viewBox="0 0 672 240" width="672" height="240" xmlns:c2pa="http://c2pa.org/manifest"><metadata><c2pa:manifest>AAAWgmp1bWIAAAAeanVtZGMycGEAEQAQgAAAqgA4m3EDYzJwYQAAABZcanVtYgAAAEdqdW1kYzJtYQARABCAAACqADibcQN1cm46YzJwYTpkNjAwZmU5Yy0zYjNhLTRiZDgtYjFhMS1kZmI0OTBmYmI1YmQAAAADl2p1bWIAAAApanVtZGMyYXMAEQAQgAAAqgA4m3EDYzJwYS5hc3NlcnRpb25zAAAAALxqdW1iAAAARGp1bWRjYm9yABEAEIAAAKoAOJtxE2MycGEuaW5ncmVkaWVudC52MwAAAAAYYzJzaEUg461HdtgHv8Lj5yd+Yc0AAABwY2JvcqNpZGM6Zm9ybWF0bWltYWdlL3N2Zyt4bWxqaW5zdGFuY2VJRHgseG1wOmlpZDo5MWYwNjQxNC0yNjE2LTRjMzUtODI4My0wNWU2MGFkMzc2M2FscmVsYXRpb25zaGlwaHBhcmVudE9mAAAB4mp1bWIAAABBanVtZGNib3IAEQAQgAAAqgA4m3ETYzJwYS5hY3Rpb25zLnYyAAAAABhjMnNoEXn/lBCIk+qzLfO5qUItVAAAAZljYm9yomdhY3Rpb25zgqJmYWN0aW9ua2MycGEub3BlbmVkanBhcmFtZXRlcnOha2luZ3JlZGllbnRzgaJjdXJseC1zZWxmI2p1bWJmPWMycGEuYXNzZXJ0aW9ucy9jMnBhLmluZ3JlZGllbnQudjNkaGFzaFggAiW+u9x0hjhQcFJOIAruiVGLz+QcUWDpFf8BGAIHGsikZmFjdGlvbngdY29tLmFudGhyb3BpYy5jbGF1ZGUucHJvdmlkZWRqcGFyYW1ldGVyc6F4H2NvbS5hbnRocm9waWMub3JpZ2luLWNvbmZpZGVuY2VndW5rbm93bmtkZXNjcmlwdGlvbnhmQ2xhdWRlIHByb3ZpZGVkIHRoaXMgZmlsZSBhdCB0aGUgcmVxdWVzdCBvZiBhIHVzZXIgYW5kIG1heSBoYXZlIGNyZWF0ZWQgb3IgbW9kaWZpZWQgdGhlIGZpbGUgY29udGVudHMubXNvZnR3YXJlQWdlbnShZG5hbWVmQ2xhdWRlcmFsbEFjdGlvbnNJbmNsdWRlZPUAAADIanVtYgAAAEBqdW1kY2JvcgARABCAAACqADibcRNjMnBhLmhhc2guZGF0YQAAAAAYYzJzaDEyIJgmiwDjwooo71LWkSUAAACAY2JvcqVjYWxnZnNoYTI1NmNwYWRNAAAAAAAAAAAAAAAAAGRoYXNoWCCJDMBu8JEvQVD2ASzEgG9NzpZ2KuxHA2PJwTHjbRS9RmRuYW1lbmp1bWJmIG1hbmlmZXN0amV4Y2x1c2lvbnOBomVzdGFydBiWZmxlbmd0aBkeBAAAAj5qdW1iAAAAJ2p1bWRjMmNsABEAEIAAAKoAOJtxA2MycGEuY2xhaW0udjIAAAACD2Nib3KlY2FsZ2ZzaGEyNTZpc2lnbmF0dXJleE1zZWxmI2p1bWJmPS9jMnBhL3VybjpjMnBhOmQ2MDBmZTljLTNiM2EtNGJkOC1iMWExLWRmYjQ5MGZiYjViZC9jMnBhLnNpZ25hdHVyZWppbnN0YW5jZUlEeCx4bXA6aWlkOmVjYThiOTA1LTRiOTMtNDhkMC05ZWNiLTgyOGQ4OGE1MTVmN3JjcmVhdGVkX2Fzc2VydGlvbnODomN1cmx4LXNlbGYjanVtYmY9YzJwYS5hc3NlcnRpb25zL2MycGEuaW5ncmVkaWVudC52M2RoYXNoWCACJb673HSGOFBwUk4gCu6JUYvP5BxRYOkV/wEYAgcayKJjdXJseCpzZWxmI2p1bWJmPWMycGEuYXNzZXJ0aW9ucy9jMnBhLmFjdGlvbnMudjJkaGFzaFgg2ApHiZBZ6SVrMcrWAM3dWFT0f1xHlv6mtiuWS34uMFuiY3VybHgpc2VsZiNqdW1iZj1jMnBhLmFzc2VydGlvbnMvYzJwYS5oYXNoLmRhdGFkaGFzaFggptg3aomTthfWqezgkqKFVQOBlk9uOxji+Rf0eGzuyOR0Y2xhaW1fZ2VuZXJhdG9yX2luZm+jZG5hbWVvQW50aHJvcGljIEZpbGVzZ3ZlcnNpb25lMS4wLjBrc3BlY1ZlcnNpb25lMi40LjAAABA4anVtYgAAAChqdW1kYzJjcwARABCAAACqADibcQNjMnBhLnNpZ25hdHVyZQAAABAIY2JvctKEWQISogEmGCFZAgowggIGMIIBjaADAgECAhRA5aAK7sI50L64g/oGQgU9Z1UTADAKBggqhkjOPQQDAzBJMRcwFQYDVQQKEw5BbnRocm9waWMsIFBCQzEuMCwGA1UEAxMlQW50aHJvcGljIENvbnRlbnQgQ3JlZGVudGlhbHMgUm9vdCBDQTAeFw0yNjA4MDcxODQzNTZaFw0yODA4MDYxOTQzNTZaMEQxFzAVBgNVBAoTDkFudGhyb3BpYywgUEJDMSkwJwYDVQQDEyBBbnRocm9waWMgQ2xhdWRlIENvbnRlbnQgU2lnbmluZzBZMBMGByqGSM49AgEGCCqGSM49AwEHA0IABJh6CmvLUBgFFNU0vUKlOVtE6djd17L5SuwX0LemFisBM3dkd/3cyjxFA3Qo5S46fX0/ihY0VZ7mfb9KF703t5OjWDBWMA4GA1UdDwEB/wQEAwIHgDAVBgNVHSUEDjAMBgorBgEEAYPoXgIBMAwGA1UdEwEB/wQCMAAwHwYDVR0jBBgwFoAUzlHiBIFOZFsj+OPEz5o+nMHXXMIwCgYIKoZIzj0EAwMDZwAwZAIwMXMdFJ4BetLLVY7ORuE9noqbbAZOZn/aArXyTwFAZfKrPzxF2vPoJNf1+UCdg1XGAjBwX1zd9WGqYkqmL5SFqw1QySjr1zJfpJM9+1rdDwSPLMOPOjKuiXjoU/pUUeG9RwmhY3BhZFkNngAAAAAAAAAAAAAAAAAAAAAAAAAAAAAAAAAAAAAAAAAAAAAAAAAAAAAAAAAAAAAAAAAAAAAAAAAAAAAAAAAAAAAAAAAAAAAAAAAAAAAAAAAAAAAAAAAAAAAAAAAAAAAAAAAAAAAAAAAAAAAAAAAAAAAAAAAAAAAAAAAAAAAAAAAAAAAAAAAAAAAAAAAAAAAAAAAAAAAAAAAAAAAAAAAAAAAAAAAAAAAAAAAAAAAAAAAAAAAAAAAAAAAAAAAAAAAAAAAAAAAAAAAAAAAAAAAAAAAAAAAAAAAAAAAAAAAAAAAAAAAAAAAAAAAAAAAAAAAAAAAAAAAAAAAAAAAAAAAAAAAAAAAAAAAAAAAAAAAAAAAAAAAAAAAAAAAAAAAAAAAAAAAAAAAAAAAAAAAAAAAAAAAAAAAAAAAAAAAAAAAAAAAAAAAAAAAAAAAAAAAAAAAAAAAAAAAAAAAAAAAAAAAAAAAAAAAAAAAAAAAAAAAAAAAAAAAAAAAAAAAAAAAAAAAAAAAAAAAAAAAAAAAAAAAAAAAAAAAAAAAAAAAAAAAAAAAAAAAAAAAAAAAAAAAAAAAAAAAAAAAAAAAAAAAAAAAAAAAAAAAAAAAAAAAAAAAAAAAAAAAAAAAAAAAAAAAAAAAAAAAAAAAAAAAAAAAAAAAAAAAAAAAAAAAAAAAAAAAAAAAAAAAAAAAAAAAAAAAAAAAAAAAAAAAAAAAAAAAAAAAAAAAAAAAAAAAAAAAAAAAAAAAAAAAAAAAAAAAAAAAAAAAAAAAAAAAAAAAAAAAAAAAAAAAAAAAAAAAAAAAAAAAAAAAAAAAAAAAAAAAAAAAAAAAAAAAAAAAAAAAAAAAAAAAAAAAAAAAAAAAAAAAAAAAAAAAAAAAAAAAAAAAAAAAAAAAAAAAAAAAAAAAAAAAAAAAAAAAAAAAAAAAAAAAAAAAAAAAAAAAAAAAAAAAAAAAAAAAAAAAAAAAAAAAAAAAAAAAAAAAAAAAAAAAAAAAAAAAAAAAAAAAAAAAAAAAAAAAAAAAAAAAAAAAAAAAAAAAAAAAAAAAAAAAAAAAAAAAAAAAAAAAAAAAAAAAAAAAAAAAAAAAAAAAAAAAAAAAAAAAAAAAAAAAAAAAAAAAAAAAAAAAAAAAAAAAAAAAAAAAAAAAAAAAAAAAAAAAAAAAAAAAAAAAAAAAAAAAAAAAAAAAAAAAAAAAAAAAAAAAAAAAAAAAAAAAAAAAAAAAAAAAAAAAAAAAAAAAAAAAAAAAAAAAAAAAAAAAAAAAAAAAAAAAAAAAAAAAAAAAAAAAAAAAAAAAAAAAAAAAAAAAAAAAAAAAAAAAAAAAAAAAAAAAAAAAAAAAAAAAAAAAAAAAAAAAAAAAAAAAAAAAAAAAAAAAAAAAAAAAAAAAAAAAAAAAAAAAAAAAAAAAAAAAAAAAAAAAAAAAAAAAAAAAAAAAAAAAAAAAAAAAAAAAAAAAAAAAAAAAAAAAAAAAAAAAAAAAAAAAAAAAAAAAAAAAAAAAAAAAAAAAAAAAAAAAAAAAAAAAAAAAAAAAAAAAAAAAAAAAAAAAAAAAAAAAAAAAAAAAAAAAAAAAAAAAAAAAAAAAAAAAAAAAAAAAAAAAAAAAAAAAAAAAAAAAAAAAAAAAAAAAAAAAAAAAAAAAAAAAAAAAAAAAAAAAAAAAAAAAAAAAAAAAAAAAAAAAAAAAAAAAAAAAAAAAAAAAAAAAAAAAAAAAAAAAAAAAAAAAAAAAAAAAAAAAAAAAAAAAAAAAAAAAAAAAAAAAAAAAAAAAAAAAAAAAAAAAAAAAAAAAAAAAAAAAAAAAAAAAAAAAAAAAAAAAAAAAAAAAAAAAAAAAAAAAAAAAAAAAAAAAAAAAAAAAAAAAAAAAAAAAAAAAAAAAAAAAAAAAAAAAAAAAAAAAAAAAAAAAAAAAAAAAAAAAAAAAAAAAAAAAAAAAAAAAAAAAAAAAAAAAAAAAAAAAAAAAAAAAAAAAAAAAAAAAAAAAAAAAAAAAAAAAAAAAAAAAAAAAAAAAAAAAAAAAAAAAAAAAAAAAAAAAAAAAAAAAAAAAAAAAAAAAAAAAAAAAAAAAAAAAAAAAAAAAAAAAAAAAAAAAAAAAAAAAAAAAAAAAAAAAAAAAAAAAAAAAAAAAAAAAAAAAAAAAAAAAAAAAAAAAAAAAAAAAAAAAAAAAAAAAAAAAAAAAAAAAAAAAAAAAAAAAAAAAAAAAAAAAAAAAAAAAAAAAAAAAAAAAAAAAAAAAAAAAAAAAAAAAAAAAAAAAAAAAAAAAAAAAAAAAAAAAAAAAAAAAAAAAAAAAAAAAAAAAAAAAAAAAAAAAAAAAAAAAAAAAAAAAAAAAAAAAAAAAAAAAAAAAAAAAAAAAAAAAAAAAAAAAAAAAAAAAAAAAAAAAAAAAAAAAAAAAAAAAAAAAAAAAAAAAAAAAAAAAAAAAAAAAAAAAAAAAAAAAAAAAAAAAAAAAAAAAAAAAAAAAAAAAAAAAAAAAAAAAAAAAAAAAAAAAAAAAAAAAAAAAAAAAAAAAAAAAAAAAAAAAAAAAAAAAAAAAAAAAAAAAAAAAAAAAAAAAAAAAAAAAAAAAAAAAAAAAAAAAAAAAAAAAAAAAAAAAAAAAAAAAAAAAAAAAAAAAAAAAAAAAAAAAAAAAAAAAAAAAAAAAAAAAAAAAAAAAAAAAAAAAAAAAAAAAAAAAAAAAAAAAAAAAAAAAAAAAAAAAAAAAAAAAAAAAAAAAAAAAAAAAAAAAAAAAAAAAAAAAAAAAAAAAAAAAAAAAAAAAAAAAAAAAAAAAAAAAAAAAAAAAAAAAAAAAAAAAAAAAAAAAAAAAAAAAAAAAAAAAAAAAAAAAAAAAAAAAAAAAAAAAAAAAAAAAAAAAAAAAAAAAAAAAAAAAAAAAAAAAAAAAAAAAAAAAAAAAAAAAAAAAAAAAAAAAAAAAAAAAAAAAAAAAAAAAAAAAAAAAAAAAAAAAAAAAAAAAAAAAAAAAAAAAAAAAAAAAAAAAAAAAAAAAAAAAAAAAAAAAAAAAAAAAAAAAAAAAAAAAAAAAAAAAAAAAAAAAAAAAAAAAAAAAAAAAAAAAAAAAAAAAAAAAAAAAAAAAAAAAAAAAAAAAAAAAAAAAAAAAAAAAAAAAAAAAAAAAAAAAAAAAAAAAAAAAAAAAAAAAAAAAAAAAAAAAAAAAAAAAAAAAAAAAAAAAAAAAAAAAAAAAAAAAAAAAAAAAAAAAAAAAAAAAAAAAAAAAAAAAAAAAAAAAAAAAAAAAAAAAAAAAAAAAAAAAAAAAAAAAAAAAAAAAAAAAAAAAAAAAAAAAAAAAAAAAAAAAAAAAAAAAAAAAAAAAAAAAAAAAAAAAAAAAAAAAAAAAAAAAAAAAAAAAAAAAAAAAAAAAAAAAAAAAAAAAAAAAAAAAAAAAAAAAAAAAAAAAAAAAAAAAAAAAAAAAAAAAAAAAAAAAAAAAAAAAAAAAAAAAAAAAAAAAAAAAAAAAAAAAAAAAAAAAAAAAAAAAAAAAAAAAAAAAAAAAAAAAAAAAAAAAAAAAAAAAAAAAAAAAAAAAAAAAAAAAAAAAAAAAAAAAAAAAAAAAAAAAAAAAAAAAAAAAAAAAAAAAAAAAAAAAAAAAAAAAAAAAAAAAAAAAAAAAAAAAAAAAAAAAAAAAAAAAAAAAAAAAAAAAAAAAAAAAAAAAAAAAAAAAAAAAAAAAAAAAAAAAAAAAAAAAAAAAAAAAAAAAAAAAAAAAAAAAAAAAAAAAAAAAAAAAAAAAAAAAAAAAAAAAAAAAAAAAAAAAAAAAAAAAAAAAAAAAAAAAAAAAAAAAAAAAAAAAAAAAAAAAAAAAAAAAAAAAAAAAAAAAAAAAAAAAAAAAAAAAAAAAAAAAAAAAAAAAAAAAAAAAAAAAAAAAAAAAAAAAAAAAAAAAAAAAAAAAAAAAAAAAAAAAAAAAAAAAAAAAAAAAAAAAAAAAAAAAAAAAAAAAAAAAAAAAAAAAAAAAAAAAAAAAAAAAAAAAAAAAAAAAAAAAAAAAAAAAAAAAAAAAAAAAAAAAAAAAAAAAAAAAAAAAAAAAAAAAAAAAAAAAAAAAAAAAAAAAAAAAAAAAAAAAAAAAAAAAAAAAAAAAAAAAAAAAAAAAAAAAAAAAAAAAAAAAAAAAAAAAAAAAAAAAAAAAAAAAAAAAAAAAAAAAAAAAAAAAAAAAAAAAAAAAAAAAAAAAAAAAAAAAAAAAAAAAAAAAAAAAAAAAAAAAAAAAAAAAAAAAAAAAAAAAAAAAAAAAAAAAAAAAAAAAAAAAAAAAAAAAAAAAAAAAAAAAAAAAAAAAAAAAAAAAAAAAAAAAAAAAAAAAAAAAAAAAAAAAAAAAAAAAAAAAAAAAAAAAAAAAAAAAAAAAAAAAAAAAAAAAAAAAAAAAAAAAAAAAAAAAAAAAAAAAAAAAAAAAAAAAAAAAAAAAAAAAAAAAAAAAAAAAAAAAAAAAAAAAAAAAAAAAAAAAAAAAAAAAAAAAAAAAAAAAAAAAAAAAAAAAAAAAAAAAAAAAAAAAAAAAAAAAAAAAAAAAAAAAAAAAAAAAAAAAAAAAAAAAAAAAAAAAAAAAAAAAAAAAAAAAAAAAAAAAAAAAAAAAAAAAAAAAAAAAAAAAAAAAAAAAAAAAAAAAAAAAAAAAAAAAAAAAAAAAAAAAAAAAAAAAAAAAAAAAAAAAAAAAAAAAAAPZYQFHR9SYNJIIFcIgl/Sc0xulr6eqL05fYelzmjtTDaFu8ph7bY4sHA3jcyjObnq6ipmakSCSKH0PexbmEbncbCAI=</c2pa:manifest></metadata><title>Career Assistant</title><style>#a{animation:ka .5s cubic-bezier(.333,1.633,.667,1) backwards}#b{animation:kb .5s cubic-bezier(.333,1.633,.667,1) .2s backwards}#s{animation:ks .95s cubic-bezier(.333,0,.667,1) .8s backwards}#d{animation:kd .45s cubic-bezier(.333,1.867,.667,1) 1.7s backwards}#c{animation:kt .6s cubic-bezier(.333,1,.667,1) 1s backwards}#e{animation:kt .6s cubic-bezier(.333,1,.667,1) 1.25s backwards}#r{animation:kr .75s cubic-bezier(.333,1,.667,1) 2.15s backwards,ko .75s linear 2.15s backwards}@keyframes ka{from{transform:matrix(.0001,0,0,.0001,128,120)}}@keyframes kb{from{transform:matrix(.0001,0,0,.0001,128,106)}}@keyframes ks{from{stroke-dashoffset:114;opacity:0}.1%{opacity:1}}@keyframes kd{from{transform:matrix(.0001,0,0,.0001,166,91)}}@keyframes kt{from{opacity:0;transform:matrix(1,0,0,1,-24,0)}}@keyframes kr{to{transform:matrix(2.4815,0,0,2.4815,-245.9,-134.8);stroke-width:1.21}}@keyframes ko{0%{opacity:0}.1%{opacity:.7}}@media(prefers-reduced-motion:reduce){*{animation:none!important}}</style><rect id="a" x="16" y="8" width="224" height="224" rx="56" fill="#2438e8"/><g id="b"><rect x="58" y="48" width="140" height="108" rx="32" fill="#fff"/><path d="M79 152 67 190 119 153Z" fill="#fff" stroke="#fff" stroke-width="6" stroke-linejoin="round"/></g><path id="s" d="M80 135H104V113H128V91H150" fill="none" stroke="#2438e8" stroke-width="11" stroke-linecap="round" stroke-linejoin="round" stroke-dasharray="114 200"/><circle id="r" cx="166" cy="91" r="13.5" fill="none" stroke="#ffb81c" stroke-width="3" opacity="0"/><circle id="d" cx="166" cy="91" r="13.5" fill="#ffb81c"/><path id="c" fill="#16183a" d="m307.3 111.4q-8.9 0-15.9-4.1-7-4-11.1-11.7-4.1-7.7-4.1-18.6 0-10.9 4.1-18.6 4.1-7.7 11.2-11.7 7-4.1 15.8-4.1 5.7 0 10.6 1.6 5 1.6 8.8 4.7 3.8 3 6.2 7.5 2.4 4.4 3.2 10h-13.9q-.4-2.7-1.7-4.9-1.3-2.1-3.2-3.6-1.9-1.5-4.4-2.3-2.4-.8-5.3-.8-5.2 0-9.2 2.6-3.9 2.6-6.1 7.6-2.2 4.9-2.2 12 0 7.3 2.2 12.2 2.3 5 6.2 7.5 3.9 2.5 9 2.5 2.9 0 5.4-.8 2.4-.8 4.4-2.3 1.9-1.5 3.2-3.6 1.3-2.2 1.8-4.9h13.8q-.5 4.6-2.7 8.9-2.2 4.3-5.9 7.6-3.7 3.4-8.8 5.3-5.1 2-11.4 2zm50.7.1q-4.8 0-8.6-1.7-3.8-1.7-5.9-5.1-2.2-3.3-2.2-8.3 0-4.2 1.5-7 1.6-2.8 4.2-4.5 2.7-1.7 6.1-2.6 3.4-.9 7.1-1.3 4.4-.5 7.1-.8 2.6-.4 3.9-1.2 1.2-.9 1.2-2.5v-.2q0-2.2-.9-3.7-.9-1.4-2.7-2.2-1.7-.8-4.3-.8-2.6 0-4.5.8-1.9.8-3.1 2.1-1.3 1.3-1.8 2.9l-12.4-2q1.3-4.4 4.3-7.5 3-3.1 7.5-4.7 4.5-1.6 10.1-1.6 4 0 7.8 1 3.9.9 6.9 3 3 2 4.8 5.2 1.8 3.3 1.8 7.8v33.9h-12.8v-7h-.4q-1.2 2.3-3.3 4.1-2 1.8-4.8 2.8-2.9 1.1-6.6 1.1zm3.8-9.5q3.2 0 5.6-1.3 2.4-1.2 3.7-3.4 1.4-2.2 1.4-4.8v-5.4q-.6.4-1.8.8-1.2.3-2.7.6-1.5.3-2.9.5-1.5.2-2.6.4-2.5.3-4.3 1.1-1.9.8-3 2.2-1 1.3-1 3.3 0 2 1 3.3 1 1.3 2.7 2 1.7.7 3.9.7zm33.7 8.5v-50.3h13.1v8.8h.5q1.4-4.7 4.7-7 3.2-2.4 7.4-2.4 1.1 0 2.3.1 1.2.1 2.1.3v12.1q-.9-.4-2.6-.5-1.7-.2-3.2-.2-3.1 0-5.6 1.3-2.4 1.3-3.8 3.7-1.4 2.4-1.4 5.5v28.6zm56.1 1q-7.7 0-13.2-3.2-5.6-3.1-8.6-8.9-3-5.8-3-13.8 0-7.7 3-13.6 2.9-5.8 8.4-9.1 5.4-3.3 12.7-3.3 5 0 9.2 1.6 4.3 1.6 7.5 4.7 3.3 3.2 5.1 8 1.8 4.7 1.8 11.2v3.8h-34.4q.2 3.8 1.5 6.5 1.5 2.9 4.1 4.4 2.6 1.5 6.1 1.5 2.4 0 4.3-.7 2-.6 3.3-2 1.4-1.3 2.1-3.2l12.2 2.3q-1.2 4.1-4.2 7.2-3 3.1-7.5 4.8-4.5 1.8-10.4 1.8zm-11.4-31.1h21.3q-.2-2.5-1-4.6-1.3-2.8-3.6-4.4-2.4-1.6-5.8-1.6-3.5 0-6 1.6-2.4 1.6-3.7 4.3-.9 2.2-1.2 4.7zm64.4 31.1q-7.7 0-13.3-3.2-5.6-3.1-8.5-8.9-3-5.8-3-13.8 0-7.7 2.9-13.6 3-5.8 8.4-9.1 5.5-3.3 12.8-3.3 4.9 0 9.2 1.6 4.3 1.6 7.5 4.7 3.2 3.2 5.1 8 1.8 4.7 1.8 11.2v3.8h-34.4q.1 3.8 1.5 6.5 1.4 2.9 4.1 4.4 2.6 1.5 6.1 1.5 2.4 0 4.3-.7 1.9-.6 3.3-2 1.4-1.3 2.1-3.2l12.2 2.3q-1.2 4.1-4.2 7.2-3 3.1-7.5 4.8-4.5 1.8-10.4 1.8zm-11.4-31.1h21.3q-.3-2.5-1.1-4.6-1.2-2.8-3.6-4.4-2.3-1.6-5.8-1.6-3.5 0-5.9 1.6-2.5 1.6-3.7 4.3-1 2.2-1.2 4.7zm41.6 30.1v-50.3h13.1v8.8h.5q1.4-4.7 4.7-7 3.2-2.4 7.4-2.4 1.1 0 2.3.1 1.2.1 2.1.3v12.1q-.9-.4-2.6-.5-1.7-.2-3.2-.2-3.1 0-5.6 1.3-2.4 1.3-3.8 3.7-1.4 2.4-1.4 5.5v28.6z"/><path id="e" fill="#2438e8" d="m274.3 196.5l24.3-67h9.9l24.6 67h-8.9l-6.7-18.7h-27.6l-6.5 18.7zm40.5-26.2l-4.8-13.5q-1.3-3.7-3.1-9.3-1.4-4.5-3.4-11.1-1.9 6.7-3.3 11.3-1.8 5.6-3 9.1l-4.7 13.5zm43 27.2q-5.2 0-9.2-1.5-4-1.5-6.6-4.4-2.6-3-3.5-7.3l7.7-1.8q1 4.1 4 6 3 1.9 7.5 1.9 5.3 0 8.4-2.2 3.1-2.2 3.1-5.3 0-2.7-1.8-4.4-1.8-1.7-5.6-2.6l-8.3-1.9q-6.8-1.7-10.2-5-3.3-3.4-3.3-8.7 0-4.4 2.4-7.7 2.5-3.3 6.7-5.1 4.2-1.9 9.5-1.9 5.2 0 8.8 1.6 3.6 1.5 5.9 4.2 2.2 2.8 3.4 6.3l-7.4 1.9q-1-2.7-3.4-4.9-2.4-2.2-7.2-2.2-4.5 0-7.5 2.1-3 2-3 5.2 0 2.8 2 4.4 2 1.7 6.4 2.8l7.6 1.8q6.9 1.6 10.1 5 3.3 3.4 3.3 8.5 0 4.4-2.5 7.9-2.5 3.4-6.9 5.4-4.5 1.9-10.4 1.9zm46.7 0q-5.1 0-9.2-1.5-4-1.5-6.6-4.4-2.6-3-3.5-7.3l7.7-1.8q1.1 4.1 4.1 6 2.9 1.9 7.4 1.9 5.3 0 8.4-2.2 3.1-2.2 3.1-5.3 0-2.7-1.8-4.4-1.8-1.7-5.5-2.6l-8.4-1.9q-6.8-1.7-10.1-5-3.4-3.4-3.4-8.7 0-4.4 2.5-7.7 2.4-3.3 6.6-5.1 4.2-1.9 9.5-1.9 5.2 0 8.8 1.6 3.6 1.5 5.9 4.2 2.3 2.8 3.4 6.3l-7.3 1.9q-1.1-2.7-3.5-4.9-2.4-2.2-7.2-2.2-4.5 0-7.5 2.1-3 2-3 5.2 0 2.8 2 4.4 2.1 1.7 6.5 2.8l7.5 1.8q6.9 1.6 10.2 5 3.2 3.4 3.2 8.5 0 4.4-2.5 7.9-2.5 3.4-6.9 5.4-4.5 1.9-10.4 1.9zm29.7-1v-50.3h8.1v50.3zm4.1-58.5q-2.3 0-4-1.5-1.7-1.6-1.7-3.8 0-2.3 1.7-3.8 1.7-1.6 4-1.6 2.3 0 4 1.6 1.6 1.5 1.6 3.8 0 2.2-1.6 3.8-1.7 1.5-4 1.5zm33.4 59.5q-5.2 0-9.2-1.5-4-1.5-6.6-4.4-2.6-3-3.5-7.3l7.7-1.8q1 4.1 4 6 3 1.9 7.5 1.9 5.3 0 8.4-2.2 3.1-2.2 3.1-5.3 0-2.7-1.8-4.4-1.8-1.7-5.6-2.6l-8.3-1.9q-6.9-1.7-10.2-5-3.3-3.4-3.3-8.7 0-4.4 2.4-7.7 2.4-3.3 6.6-5.1 4.2-1.9 9.6-1.9 5.2 0 8.8 1.6 3.6 1.5 5.9 4.2 2.2 2.8 3.4 6.3l-7.4 1.9q-1-2.7-3.4-4.9-2.4-2.2-7.3-2.2-4.5 0-7.4 2.1-3 2-3 5.2 0 2.8 2 4.4 2 1.7 6.4 2.8l7.6 1.8q6.8 1.6 10.1 5 3.3 3.4 3.3 8.5 0 4.4-2.5 7.9-2.5 3.4-7 5.4-4.4 1.9-10.3 1.9zm49.4-51.3v7h-10.3v30.2q0 3.4 1.3 5 1.4 1.5 4.6 1.5.8 0 2-.2 1.1-.2 2.1-.3l1.7 6.8q-1.3.4-2.9.7-1.6.2-3.1.2-6.5 0-10.2-3.4-3.6-3.5-3.6-9.6v-30.9h-7.6v-7h7.6v-11.9h8.1v11.9zm23 51.4q-4.8 0-8.6-1.8-3.9-1.8-6.2-5.2-2.3-3.5-2.3-8.4 0-4.3 1.7-7 1.7-2.7 4.6-4.3 2.8-1.5 6.3-2.3 3.4-.7 6.9-1.2 4.5-.6 7.4-.9 2.8-.3 4.2-1.1 1.3-.7 1.3-2.6v-.2q0-3.2-1.1-5.4-1.2-2.2-3.6-3.3-2.3-1.2-5.8-1.2-3.6 0-6.1 1.1-2.6 1.2-4.2 2.8-1.6 1.7-2.4 3.5l-7.8-2.6q2-4.6 5.2-7.1 3.3-2.6 7.3-3.7 3.9-1.1 7.8-1.1 2.5 0 5.7.6 3.2.6 6.2 2.4 3 1.8 5 5.3 1.9 3.6 1.9 9.5v33.1h-7.9v-6.9h-.6q-.8 1.8-2.7 3.7-1.9 1.8-4.9 3.1-3 1.2-7.3 1.2zm1.4-7.1q4.5 0 7.6-1.8 3.1-1.7 4.7-4.5 1.6-2.8 1.6-5.9v-6.9q-.5.5-2.1 1-1.7.5-3.8.8-2.2.4-4.2.6-2 .3-3.1.4-3 .4-5.5 1.3-2.5.8-4.1 2.5-1.5 1.7-1.5 4.6 0 2.6 1.4 4.3 1.3 1.8 3.6 2.7 2.4.9 5.4.9zm42.4-24.1v30.1h-8v-50.3h7.7l.1 9.3q2.1-4.7 5.4-7 4.2-2.9 9.9-2.9 5.1 0 8.9 2.1 3.9 2.1 6 6.3 2.1 4.2 2.1 10.6v31.9h-8.1v-31.3q0-5.7-3-9-3-3.3-8.3-3.3-3.6 0-6.5 1.6-2.8 1.5-4.5 4.5-1.7 3.1-1.7 7.4zm64.2-20.2v7h-10.3v30.2q0 3.4 1.4 5 1.4 1.5 4.5 1.5.8 0 2-.2 1.2-.2 2.2-.3l1.6 6.8q-1.2.4-2.8.7-1.6.2-3.2.2-6.5 0-10.1-3.4-3.7-3.5-3.7-9.6v-30.9h-7.5v-7h7.5v-11.9h8.1v11.9z"/></svg>